<svg aria-hidden="true" style="position:absolute;width:0;height:0;overflow:hidden" xmlns="http://www.w3.org/2000/svg"><defs><symbol id="icon-angle-right" viewBox="0 0 16 32"><path fill="#fff" style="fill:var(--color1, #fff)" d="m14.019 17.062-8.5 8.5a1.493 1.493 0 0 1-2.119 0L1.987 24.15a1.495 1.495 0 0 1 0-2.119l6.025-6.025-6.025-6.025a1.495 1.495 0 0 1 0-2.119l1.406-1.425a1.493 1.493 0 0 1 2.119 0l8.5 8.5c.594.588.594 1.538.006 2.125z"/></symbol><symbol id="icon-book" viewBox="0 0 32 32"><path fill="#fff" style="fill:var(--color1, #fff)" d="M22 6a6 6 0 1 0-12 0 6 6 0 0 0 12 0zm-7.401 9.069c-3.708-2.27-9.714-2.894-12.737-3.066-1.016-.057-1.863.716-1.863 1.693v13.925c0 .896.724 1.643 1.656 1.691 2.729.143 8.249.667 12.065 2.589.586.295 1.28-.107 1.28-.742V15.785a.832.832 0 0 0-.401-.716zm15.538-3.066c-3.022.171-9.029.796-12.736 3.066a.848.848 0 0 0-.401.727v15.362c0 .637.696 1.039 1.284.744 3.815-1.92 9.333-2.444 12.061-2.588.931-.049 1.656-.796 1.656-1.691V13.697c-.001-.977-.848-1.751-1.863-1.693z"/></symbol><symbol id="icon-facebook" viewBox="0 0 32 32"><path fill="#fff" style="fill:var(--color1, #fff)" d="M21.329 5.313h2.921V.225C23.746.156 22.013 0 19.994 0c-4.212 0-7.097 2.649-7.097 7.519V12H8.249v5.688h4.648V32h5.699V17.689h4.46l.708-5.688h-5.169V8.082c.001-1.644.444-2.769 2.735-2.769z"/></symbol><symbol id="icon-linkedin" viewBox="0 0 32 32"><path fill="#fff" style="fill:var(--color1, #fff)" d="M31.992 32v-.001H32V20.263c0-5.741-1.236-10.164-7.948-10.164-3.227 0-5.392 1.771-6.276 3.449h-.093v-2.913h-6.364v21.364h6.627V21.42c0-2.785.528-5.479 3.977-5.479 3.399 0 3.449 3.179 3.449 5.657v10.401h6.62zM.528 10.636h6.635V32H.528V10.636zM3.843 0C1.722 0 0 1.721 0 3.843s1.721 3.879 3.843 3.879c2.121 0 3.843-1.757 3.843-3.879A3.846 3.846 0 0 0 3.843 0z"/></symbol><symbol id="icon-logotype" viewBox="0 0 41 32"><path fill="#28a745" style="fill:var(--color2, #28a745)" d="M38.196.197c-3.86.219-11.533 1.018-16.27 3.923-.327.2-.512.557-.512.929v25.676c0 .815.89 1.33 1.64.952 4.873-2.457 11.921-3.127 15.406-3.311 1.19-.063 2.115-1.018 2.115-2.163V2.363c.001-1.25-1.081-2.24-2.379-2.166zM18.649 4.12C13.913 1.216 6.24.417 2.38.197 1.082.124 0 1.114 0 2.363v23.84c0 1.146.925 2.101 2.115 2.163 3.486.183 10.538.855 15.411 3.313.748.378 1.635-.137 1.635-.95V5.035c0-.373-.185-.716-.512-.917z"/></symbol><symbol id="icon-pencil" viewBox="0 0 32 32"><path fill="#fff" style="fill:var(--color1, #fff)" d="m31.119 8.881-2.881 2.881a.75.75 0 0 1-1.063 0l-6.938-6.937a.75.75 0 0 1 0-1.063L23.118.881a3.006 3.006 0 0 1 4.244 0l3.756 3.756a2.995 2.995 0 0 1 0 4.244zM17.762 6.237 1.349 22.649.024 30.243a1.503 1.503 0 0 0 1.738 1.738l7.594-1.331 16.412-16.412a.75.75 0 0 0 0-1.063L18.83 6.238a.758.758 0 0 0-1.069 0zM7.756 21.244a.872.872 0 0 1 0-1.238l9.625-9.625c.344-.344.894-.344 1.238 0s.344.894 0 1.238l-9.625 9.625a.87.87 0 0 1-1.237 0zM5.5 26.5h3v2.269l-4.031.706-1.944-1.944.706-4.031H5.5v3z"/></symbol><symbol id="icon-twitter" viewBox="0 0 32 32"><path fill="#fff" style="fill:var(--color1, #fff)" d="M32 6.078c-1.19.522-2.458.868-3.78 1.036a6.523 6.523 0 0 0 2.886-3.626 13.11 13.11 0 0 1-4.16 1.588A6.574 6.574 0 0 0 22.154 3c-3.632 0-6.556 2.948-6.556 6.562 0 .52.044 1.02.152 1.496-5.454-.266-10.28-2.88-13.522-6.862a6.605 6.605 0 0 0-.898 3.316 6.57 6.57 0 0 0 2.914 5.452 6.479 6.479 0 0 1-2.964-.808v.072c0 3.188 2.274 5.836 5.256 6.446a6.548 6.548 0 0 1-1.72.216 5.8 5.8 0 0 1-1.242-.112c.85 2.598 3.262 4.508 6.13 4.57a13.182 13.182 0 0 1-8.134 2.798c-.538 0-1.054-.024-1.57-.09A18.469 18.469 0 0 0 10.064 29c12.072 0 18.672-10 18.672-18.668 0-.29-.01-.57-.024-.848A13.087 13.087 0 0 0 32 6.078z"/></symbol><symbol id="icon-university" viewBox="0 0 32 32"><path fill="#fff" style="fill:var(--color1, #fff)" d="M31 8v1a.498.498 0 0 1-.5.5H29v.75a.75.75 0 0 1-.75.75H3.75a.75.75 0 0 1-.75-.75V9.5H1.5A.498.498 0 0 1 1 9V8a.5.5 0 0 1 .308-.462l14.5-5.5a.496.496 0 0 1 .382 0l14.5 5.5a.503.503 0 0 1 .308.462zm-1.5 19h-27A1.5 1.5 0 0 0 1 28.5v1a.498.498 0 0 0 .5.5h29a.498.498 0 0 0 .5-.5v-1a1.5 1.5 0 0 0-1.5-1.5zM6 12v12H3.75a.75.75 0 0 0-.75.75V26h26v-1.25a.75.75 0 0 0-.75-.75H26V12h-4v12h-4V12h-4v12h-4V12H6z"/></symbol><symbol id="icon-youtube" viewBox="0 0 45 32"><path fill="#fff" style="fill:var(--color1, #fff)" d="M43.664 5.831c-.486-1.944-2.025-3.484-3.889-3.97C36.291.889 22.518.889 22.518.889s-13.854 0-17.338.972c-1.863.486-3.403 2.025-3.889 3.97C.319 9.234.319 16.526.319 16.526s0 7.211.972 10.694c.486 1.944 2.025 3.403 3.889 3.889C8.664 32 22.518 32 22.518 32s13.773 0 17.257-.891c1.863-.486 3.403-1.944 3.889-3.889.972-3.484.972-10.694.972-10.694s0-7.292-.972-10.694zM17.982 23.088V9.963l11.505 6.563-11.505 6.563z"/></symbol></defs></svg>